:FULLY-SPECIFIED
:FORCE-ALL-JOINTS-BE-3DOF
:DEGREES
1733
root -5.1333 15.5419 26.8557 -172.077 -2.94909 -170.901
lfemur -49.4097 24.3504 -22.8924
ltibia 64.4761 -0 0
lfoot -16.9286 33.4468 -0.130296
ltoes -1.58251 0 0
rfemur -22.3295 -18.8509 17.4244
rtibia 71.1817 -0 0
rfoot -8.81288 -26.0447 -0.165704
rtoes 12.3372 -0 0
lowerback 15.0202 2.11343 -4.37635
upperback -1.22575 2.26301 3.25658
thorax -9.98048 1.40227 5.55652
lowerneck 4.43394 -14.8777 -15.779
upperneck -2.95899 -21.195 22.4426
head 2.69444 -10.9568 8.45704
lclavicle -7.05686e-14 -3.97569e-15 0
lhumerus -52.4179 -47.6509 123.741
lradius 97.5655 -0 0
lwrist 39.7132 0 0
lhand -4.32889 40.8257 0.24901
lfingers 7.12502 -0 0
lthumb 21.4359 69.6739 0.232518
rclavicle -7.05686e-14 -3.97569e-15 0
rhumerus 54.9928 31.0771 -21.3005
rradius 108.962 -0 0
rwrist -17.8272 0 0
rhand 6.33316 -24.3664 -2.01832
rfingers 7.12502 -0 0
rthumb 31.9635 -52.1814 -1.12259
1734
root -5.05466 15.5416 26.887 -171.919 -0.262706 -170.805
lfemur -48.8817 24.1218 -22.1997
ltibia 65.0294 -0 0
lfoot -16.7128 32.983 -0.13128
ltoes -2.3102 0 0
rfemur -22.5792 -19.6769 17.8095
rtibia 70.8696 -0 0
rfoot -8.95722 -26.0418 -0.174062
rtoes 11.8505 -0 0
lowerback 15.0007 2.26573 -4.28199
upperback -1.23436 2.47737 3.16292
thorax -9.98373 1.49771 5.35036
lowerneck 4.19473 -14.6988 -15.6283
upperneck -2.75067 -20.9203 22.2229
head 2.70189 -10.7955 8.38298
lclavicle -7.05686e-14 -3.97569e-15 0
lhumerus -53.9019 -46.8004 123.924
lradius 98.2074 -0 0
lwrist 39.3623 0 0
lhand -4.49048 40.4094 0.280432
lfingers 7.12502 -0 0
lthumb 21.2806 69.2792 0.261985
rclavicle -7.05686e-14 -3.97569e-15 0
rhumerus 54.0559 30.2647 -22.1987
rradius 106.538 -0 0
rwrist -17.696 0 0
rhand 5.73379 -24.0345 -2.35818
rfingers 7.12502 -0 0
rthumb 31.4565 -52.0888 -1.32316
1735
root -4.97603 15.5413 26.9184 -171.759 2.45168 -170.708
lfemur -48.3068 23.8498 -21.4722
ltibia 65.5985 -0 0
lfoot -16.4948 32.5022 -0.130521
ltoes -3.09542 0 0
rfemur -22.8597 -20.5098 18.2025
rtibia 70.5169 -0 0
rfoot -9.0986 -26.0226 -0.180914
rtoes 11.3235 -0 0
lowerback 14.9811 2.42237 -4.18743
upperback -1.24183 2.69728 3.06557
thorax -9.98536 1.59559 5.1387
lowerneck 3.94951 -14.513 -15.4725
upperneck -2.53704 -20.6349 21.9933
head 2.70839 -10.6284 8.30542
lclavicle -7.05686e-14 -3.97569e-15 0
lhumerus -55.4006 -45.9115 124.052
lradius 98.8734 -0 0
lwrist 39.0014 0 0
lhand -4.66267 39.9767 0.311589
lfingers 7.12502 -0 0
lthumb 21.1151 68.8692 0.29122
rclavicle -7.05686e-14 -3.97569e-15 0
rhumerus 53.0965 29.3976 -23.1161
rradius 104.002 -0 0
rwrist -17.5729 0 0
rhand 5.10994 -23.6974 -2.70471
rfingers 7.12502 -0 0
rthumb 30.9299 -52.0009 -1.52897
1736
root -4.89739 15.541 26.9498 -171.598 5.18995 -170.608
lfemur -47.6911 23.5358 -20.7147
ltibia 66.1808 -0 0
lfoot -16.2744 32.0057 -0.128143
ltoes -3.93261 0 0
rfemur -23.1688 -21.347 18.6034
rtibia 70.1266 -0 0
rfoot -9.23757 -25.9883 -0.186287
rtoes 10.759 -0 0
lowerback 14.9614 2.58272 -4.09257
upperback -1.24825 2.92198 2.96497
thorax -9.98545 1.69554 4.92216
lowerneck 3.69889 -14.3206 -15.3119
upperneck -2.31868 -20.3393 21.7546
head 2.714 -10.4558 8.22454
lclavicle -7.05686e-14 -3.97569e-15 0
lhumerus -56.9036 -44.9885 124.123
lradius 99.5583 -0 0
lwrist 38.6288 0 0
lhand -4.84539 39.5296 0.34212
lfingers 7.12502 -0 0
lthumb 20.9394 68.4459 0.319884
rclavicle -7.05686e-14 -3.97569e-15 0
rhumerus 52.1188 28.4798 -24.0473
rradius 101.367 -0 0
rwrist -17.4519 0 0
rhand 4.46291 -23.3587 -3.05354
rfingers 7.12502 -0 0
rthumb 30.3842 -51.9196 -1.73742
1737
root -4.81875 15.5407 26.9811 -171.433 7.94798 -170.505
lfemur -47.0404 23.1815 -19.9318
ltibia 66.7733 -0 0
lfoot -16.0512 31.4946 -0.124271
ltoes -4.8162 0 0
rfemur -23.5043 -22.1858 19.0121
rtibia 69.7018 -0 0
rfoot -9.37465 -25.9399 -0.190218
rtoes 10.16 -0 0
lowerback 14.9416 2.7462 -3.9973
upperback -1.2537 3.15071 2.86157
thorax -9.9841 1.79724 4.70134
lowerneck 3.44352 -14.1217 -15.1468
upperneck -2.09617 -20.0338 21.5075
head 2.7188 -10.278 8.14056
lclavicle -7.05686e-14 -3.97569e-15 0
lhumerus -58.4015 -44.0355 124.134
lradius 100.257 -0 0
lwrist 38.2429 0 0
lhand -5.03852 39.0701 0.371668
lfingers 7.12502 -0 0
lthumb 20.7538 68.0112 0.347645
rclavicle -7.05686e-14 -3.97569e-15 0
rhumerus 51.1261 27.5154 -24.9872
rradius 98.6444 -0 0
rwrist -17.3275 0 0
rhand 3.79415 -23.0222 -3.40037
rfingers 7.12502 -0 0
rthumb 29.8201 -51.8467 -1.94595
1738
root -4.74011 15.5404 27.0125 -171.266 10.7216 -170.398
lfemur -46.3603 22.7887 -19.1283
ltibia 67.3732 -0 0
lfoot -15.8252 30.9701 -0.119032
ltoes -5.74062 0 0
rfemur -23.8638 -23.0235 19.4284
rtibia 69.2456 -0 0
rfoot -9.51037 -25.8786 -0.19275
rtoes 9.52924 -0 0
lowerback 14.9218 2.91219 -3.90153
upperback -1.25824 3.38272 2.75582
thorax -9.98138 1.90034 4.47686
lowerneck 3.18403 -13.9167 -14.9777
upperneck -1.8701 -19.719 21.2527
head 2.72284 -10.0954 8.05366
lclavicle -7.05686e-14 -3.97569e-15 0
lhumerus -59.8856 -43.057 124.083
lradius 100.964 -0 0
lwrist 37.8422 0 0
lhand -5.24197 38.6003 0.399889
lfingers 7.12502 -0 0
lthumb 20.5583 67.5671 0.374178
rclavicle -7.05686e-14 -3.97569e-15 0
rhumerus 50.1218 26.5089 -25.9314
rradius 95.8484 -0 0
rwrist -17.1937 0 0
rhand 3.10518 -22.6918 -3.74106
rfingers 7.12502 -0 0
rthumb 29.2383 -51.7843 -2.15208
1739
root -4.66148 15.5401 27.0439 -171.093 13.5068 -170.286
lfemur -45.6566 22.3591 -18.3087
ltibia 67.9778 -0 0
lfoot -15.5959 30.4332 -0.112556
ltoes -6.7003 0 0
rfemur -24.2448 -23.8575 19.8519
rtibia 68.7609 -0 0
rfoot -9.64527 -25.8055 -0.19393
rtoes 8.86963 -0 0
lowerback 14.9021 3.08009 -3.80515
upperback -1.26195 3.61725 2.64814
thorax -9.97738 2.00449 4.24932
lowerneck 2.92102 -13.7057 -14.8047
upperneck -1.641 -19.3954 20.9908
head 2.72619 -9.90827 7.96405
lclavicle -7.05686e-14 -3.97569e-15 0
lhumerus -61.3477 -42.0575 123.969
lradius 101.674 -0 0
lwrist 37.4251 0 0
lhand -5.45561 38.1224 0.426447
lfingers 7.12502 -0 0
lthumb 20.353 67.1157 0.39917
rclavicle -7.05686e-14 -3.97569e-15 0
rhumerus 49.1082 25.4647 -26.8756
rradius 92.9915 -0 0
rwrist -17.0449 0 0
rhand 2.39762 -22.3716 -4.07154
rfingers 7.12502 -0 0
rthumb 28.6393 -51.7342 -2.35334
1740
root -4.58284 15.5398 27.0752 -170.916 16.2993 -170.167
lfemur -44.9346 21.8949 -17.4774
ltibia 68.5841 -0 0
lfoot -15.3632 29.8853 -0.104977
ltoes -7.68966 0 0
rfemur -24.6451 -24.6853 20.2822
rtibia 68.2508 -0 0
rfoot -9.77986 -25.7218 -0.193811
rtoes 8.18401 -0 0
lowerback 14.8824 3.24929 -3.70807
upperback -1.26489 3.85354 2.53899
thorax -9.97218 2.10937 4.01933
lowerneck 2.65512 -13.489 -14.6282
upperneck -1.40943 -19.0634 20.7225
head 2.72892 -9.71694 7.87191
lclavicle -7.05686e-14 -3.97569e-15 0
lhumerus -62.7805 -41.0415 123.793
lradius 102.381 -0 0
lwrist 36.9899 0 0
lhand -5.67934 37.6383 0.451017
lfingers 7.12502 -0 0
lthumb 20.138 66.6587 0.422315
rclavicle -7.05686e-14 -3.97569e-15 0
rhumerus 48.0877 24.3875 -27.8162
rradius 90.0867 -0 0
rwrist -16.8753 0 0
rhand 1.6732 -22.0658 -4.38792
rfingers 7.12502 -0 0
rthumb 28.024 -51.6986 -2.54735
1741
root -4.5042 15.5395 27.1066 -170.732 19.0949 -170.04
lfemur -44.1997 21.3984 -16.6386
ltibia 69.1895 -0 0
lfoot -15.1268 29.3274 -0.0964283
ltoes -8.70315 0 0
rfemur -25.0618 -25.5044 20.7186
rtibia 67.7185 -0 0
rfoot -9.91467 -25.6286 -0.192448
rtoes 7.47523 -0 0
lowerback 14.8629 3.41919 -3.61018
upperback -1.26711 4.09083 2.4288
thorax -9.96583 2.21462 3.78751
lowerneck 2.38694 -13.2669 -14.4486
upperneck -1.17592 -18.7235 20.4485
head 2.7311 -9.52176 7.77744
lclavicle -7.05686e-14 -3.97569e-15 0
lhumerus -64.1768 -40.0136 123.555
lradius 103.081 -0 0
lwrist 36.535 0 0
lhand -5.91301 37.1501 0.473292
lfingers 7.12502 -0 0
lthumb 19.9134 66.1983 0.443326
rclavicle -7.05686e-14 -3.97569e-15 0
rhumerus 47.0618 23.2821 -28.75
rradius 87.1468 -0 0
rwrist -16.6792 0 0
rhand 0.933744 -21.7788 -4.68639
rfingers 7.12502 -0 0
rthumb 27.3931 -51.6796 -2.73175
1742
root -4.42557 15.5392 27.138 -170.54 21.8896 -169.904
lfemur -43.457 20.8721 -15.7963
ltibia 69.791 -0 0
lfoot -14.8864 28.7607 -0.0870489
ltoes -9.73519 0 0
rfemur -25.4923 -26.3121 21.1603
rtibia 67.1669 -0 0
rfoot -10.0502 -25.5269 -0.189902
rtoes 6.74615 -0 0
lowerback 14.8435 3.58919 -3.51137
upperback -1.26867 4.32837 2.31803
thorax -9.95841 2.31991 3.55445
lowerneck 2.11709 -13.0396 -14.2661
upperneck -0.940991 -18.3761 20.1694
head 2.73281 -9.32308 7.68084
lclavicle -7.05686e-14 -3.97569e-15 0
lhumerus -65.53 -38.9781 123.255
lradius 103.768 -0 0
lwrist 36.059 0 0
lhand -6.1565 36.6599 0.492979
lfingers 7.12502 -0 0
lthumb 19.6794 65.7364 0.461927
rclavicle -7.05686e-14 -3.97569e-15 0
rhumerus 46.0317 22.1534 -29.6741
rradius 84.1847 -0 0
rwrist -16.4506 0 0
rhand 0.181143 -21.515 -4.96334
rfingers 7.12502 -0 0
rthumb 26.7473 -51.6793 -2.90428
1743
root -4.34693 15.5389 27.1693 -170.339 24.6792 -169.756
lfemur -42.7112 20.3188 -14.9544
ltibia 70.3858 -0 0
lfoot -14.6419 28.1864 -0.0769788
ltoes -10.7802 0 0
rfemur -25.9337 -27.1063 21.6064
rtibia 66.599 -0 0
rfoot -10.1871 -25.418 -0.186236
rtoes 5.99964 -0 0
lowerback 14.8244 3.75867 -3.41156
upperback -1.2696 4.56539 2.20711
thorax -9.94998 2.42488 3.32078
lowerneck 1.84617 -12.8073 -14.081
upperneck -0.705135 -18.0219 19.8858
head 2.73412 -9.12121 7.5823
lclavicle -7.05686e-14 -3.97569e-15 0
lhumerus -66.8338 -37.9394 122.895
lradius 104.436 -0 0
lwrist 35.5602 0 0
lhand -6.40967 36.1698 0.509805
lfingers 7.12502 -0 0
lthumb 19.4361 65.2749 0.477861
rclavicle -7.05686e-14 -3.97569e-15 0
rhumerus 44.9983 21.0066 -30.5859
rradius 81.2133 -0 0
rwrist -16.184 0 0
rhand -0.582632 -21.2789 -5.21525
rfingers 7.12502 -0 0
rthumb 26.0872 -51.7 -3.06271
1744
root -4.26829 15.5387 27.2007 -170.126 27.4595 -169.595
lfemur -41.9671 19.7412 -14.1164
ltibia 70.9711 -0 0
lfoot -14.3928 27.6056 -0.0663611
ltoes -11.8326 0 0
rfemur -26.383 -27.8844 22.0557
rtibia 66.018 -0 0
rfoot -10.3257 -25.3028 -0.181515
rtoes 5.23853 -0 0
lowerback 14.8055 3.92704 -3.31062
upperback -1.26994 4.80113 2.09648
thorax -9.94058 2.5292 3.08709
lowerneck 1.57477 -12.5704 -13.8936
upperneck -0.468843 -17.6612 19.5983
head 2.7351 -8.9165 7.48202
lclavicle -7.05686e-14 -3.97569e-15 0
lhumerus -68.0821 -36.9015 122.478
lradius 105.081 -0 0
lwrist 35.0369 0 0
lhand -6.67238 35.6819 0.523514
lfingers 7.12502 -0 0
lthumb 19.1836 64.8159 0.490888
rclavicle -7.05686e-14 -3.97569e-15 0
rhumerus 43.962 19.8468 -31.4834
rradius 78.2455 -0 0
rwrist -15.8736 0 0
rhand -1.35556 -21.0754 -5.43881
rfingers 7.12502 -0 0
rthumb 25.4137 -51.744 -3.2049
1745
root -4.18965 15.5384 27.232 -169.901 30.2262 -169.419
lfemur -41.2289 19.1427 -13.2855
ltibia 71.5441 -0 0
lfoot -14.139 27.0196 -0.0553419
ltoes -12.8869 0 0
rfemur -26.8372 -28.6442 22.507
rtibia 65.4269 -0 0
rfoot -10.4667 -25.1827 -0.175809
rtoes 4.4657 -0 0
lowerback 14.787 4.09368 -3.20846
upperback -1.26972 5.03483 1.9866
thorax -9.93028 2.63252 2.854
lowerneck 1.3035 -12.3292 -13.7042
upperneck -0.232585 -17.2946 19.3076
head 2.73583 -8.70928 7.3802
lclavicle -7.05686e-14 -3.97569e-15 0
lhumerus -69.2688 -35.8685 122.006
lradius 105.697 -0 0
lwrist 34.4877 0 0
lhand -6.94448 35.1982 0.533877
lfingers 7.12502 -0 0
lthumb 18.922 64.3612 0.50079
rclavicle -7.05686e-14 -3.97569e-15 0
rhumerus 42.9228 18.6792 -32.3646
rradius 75.2942 -0 0
rwrist -15.5135 0 0
rhand -2.13559 -20.9092 -5.63081
rfingers 7.12502 -0 0
rthumb 24.7275 -51.8137 -3.32877
